<svg xmlns="http://www.w3.org/2000/svg" xmlns:xlink="http://www.w3.org/1999/xlink"><defs><style>.cls-1 { fill: none; stroke: #010101; stroke-width: 3px; fill-rule: evenodd; filter: url(#filter); }</style><filter id="filter" x="24" y="247" width="19.031" height="34" filterUnits="userSpaceOnUse"><feFlood result="flood" flood-color="#aaacad"/><feComposite result="composite" operator="in" in2="SourceGraphic"/><feBlend result="blend" in2="SourceGraphic"/></filter><style>.cls-1 { fill: none; stroke: #010101; stroke-width: 3px; fill-rule: evenodd; filter: url(#filter); }</style><filter id="filter" x="24" y="247" width="19.031" height="34" filterUnits="userSpaceOnUse"><feFlood result="flood" flood-color="#aaacad"/><feComposite result="composite" operator="in" in2="SourceGraphic"/><feBlend result="blend" in2="SourceGraphic"/></filter><style>.cls-1 { fill: none; stroke: #fff; stroke-width: 3px; fill-rule: evenodd; }</style><style>.cls-1 { fill: none; stroke: #fff; stroke-width: 3px; fill-rule: evenodd; }</style></defs><symbol id="icon-comment-count-circle" viewBox="0 0 120 132"><path fill="#FFF" d="M120 60c0-33.1-26.9-60-60-60S0 26.9 0 60c0 29.7 21.6 54.4 50 59.2L60 132l10-12.8c28.4-4.8 50-29.5 50-59.2z"/></symbol><symbol id="icon-reviews-left-arrow" viewBox="0 0 22.031 37"><g transform="translate(-22.5 -245.5)" fill="none" filter="url(#filter)"><path id="Rectangle_3_copy" data-name="Rectangle 3 copy" class="cls-1" d="M40.89 281L24 264l16.89-17" stroke="inherit" filter="none" fill="inherit"/></g><use transform="translate(-22.5 -245.5)" xlink:href="#Rectangle_3_copy" stroke="#010101" filter="none" fill="none"/></symbol><symbol id="icon-reviews-right-arrow" viewBox="0 0 22.031 37"><g transform="translate(-22.5 -245.5)" fill="none" filter="url(#filter)"><path id="Rectangle_3_copy" data-name="Rectangle 3 copy" class="cls-1" d="M40.89 281L24 264l16.89-17" stroke="inherit" filter="none" fill="inherit"/></g><use transform="translate(-22.5 -245.5)" xlink:href="#Rectangle_3_copy" stroke="#010101" filter="none" fill="none"/></symbol><symbol id="icon-slider-left-arrow" viewBox="0 0 17.906 27"><path id="Rectangle_6_copy" data-name="Rectangle 6 copy" class="cls-1" d="M14.35 25.5L1.5 13.5l12.85-12"/></symbol><symbol id="icon-slider-right-arrow" viewBox="0 0 17.531 27"><path class="cls-1" d="M3.587 1.5l12.444 12-12.443 12"/></symbol></svg>